<svg width="30" height="30" viewBox="0 0 30 30" fill="none" xmlns="http://www.w3.org/2000/svg">
<path fill-rule="evenodd" clip-rule="evenodd" d="M14.9999 0.833351C7.17567 0.833351 0.833251 7.17577 0.833251 15C0.833252 22.8243 7.17567 29.1667 14.9999 29.1667C22.8242 29.1667 29.1666 22.8243 29.1666 15C29.1666 7.17577 22.8242 0.83335 14.9999 0.833351ZM14.3341 20.0009C14.1349 20.1998 13.8648 20.3116 13.5833 20.3116C13.3017 20.3116 13.0316 20.1998 12.8324 20.0009L8.58242 15.7509C8.38345 15.5516 8.27169 15.2816 8.27169 15C8.27169 14.7185 8.38345 14.4484 8.58242 14.2492L12.8324 9.99919C12.9297 9.8948 13.047 9.81107 13.1773 9.753C13.3077 9.69492 13.4484 9.6637 13.591 9.66118C13.7337 9.65866 13.8754 9.68491 14.0077 9.73835C14.14 9.79178 14.2602 9.87132 14.3611 9.97222C14.4619 10.0731 14.5415 10.1933 14.5949 10.3256C14.6484 10.4579 14.6746 10.5996 14.6721 10.7423C14.6696 10.8849 14.6383 11.0256 14.5803 11.1559C14.5222 11.2863 14.4385 11.4036 14.3341 11.5009L11.8974 13.9375L20.6666 13.9375C20.9484 13.9375 21.2186 14.0495 21.4179 14.2487C21.6171 14.448 21.7291 14.7182 21.7291 15C21.7291 15.2818 21.6171 15.5521 21.4179 15.7513C21.2186 15.9506 20.9484 16.0625 20.6666 16.0625L11.8974 16.0625L14.3341 18.4992C14.5331 18.6984 14.6448 18.9685 14.6448 19.25C14.6448 19.5316 14.5331 19.8016 14.3341 20.0009Z" fill="white"/>
</svg>
