<svg width="36" height="40" viewBox="0 0 36 40" fill="none" xmlns="http://www.w3.org/2000/svg">
<path d="M9.97921 25.6031C10.7389 25.6031 11.4676 25.3013 12.0048 24.7641C12.542 24.2268 12.8438 23.4982 12.8438 22.7385C12.8438 21.9788 12.542 21.2501 12.0048 20.7129C11.4676 20.1757 10.7389 19.8739 9.97921 19.8739C9.21947 19.8739 8.49085 20.1757 7.95364 20.7129C7.41643 21.2501 7.11462 21.9788 7.11462 22.7385C7.11462 23.4982 7.41643 24.2268 7.95364 24.7641C8.49085 25.3013 9.21947 25.6031 9.97921 25.6031ZM9.97921 33.6239C10.7389 33.6239 11.4676 33.3221 12.0048 32.7849C12.542 32.2477 12.8438 31.5191 12.8438 30.7593C12.8438 29.9996 12.542 29.271 12.0048 28.7338C11.4676 28.1965 10.7389 27.8947 9.97921 27.8947C9.21947 27.8947 8.49085 28.1965 7.95364 28.7338C7.41643 29.271 7.11462 29.9996 7.11462 30.7593C7.11462 31.5191 7.41643 32.2477 7.95364 32.7849C8.49085 33.3221 9.21947 33.6239 9.97921 33.6239ZM20.8646 22.7385C20.8646 23.4982 20.5628 24.2268 20.0256 24.7641C19.4884 25.3013 18.7598 25.6031 18 25.6031C17.2403 25.6031 16.5117 25.3013 15.9745 24.7641C15.4373 24.2268 15.1355 23.4982 15.1355 22.7385C15.1355 21.9788 15.4373 21.2501 15.9745 20.7129C16.5117 20.1757 17.2403 19.8739 18 19.8739C18.7598 19.8739 19.4884 20.1757 20.0256 20.7129C20.5628 21.2501 20.8646 21.9788 20.8646 22.7385ZM18 33.6239C18.7598 33.6239 19.4884 33.3221 20.0256 32.7849C20.5628 32.2477 20.8646 31.5191 20.8646 30.7593C20.8646 29.9996 20.5628 29.271 20.0256 28.7338C19.4884 28.1965 18.7598 27.8947 18 27.8947C17.2403 27.8947 16.5117 28.1965 15.9745 28.7338C15.4373 29.271 15.1355 29.9996 15.1355 30.7593C15.1355 31.5191 15.4373 32.2477 15.9745 32.7849C16.5117 33.3221 17.2403 33.6239 18 33.6239ZM28.8855 22.7385C28.8855 23.4982 28.5837 24.2268 28.0464 24.7641C27.5092 25.3013 26.7806 25.6031 26.0209 25.6031C25.2611 25.6031 24.5325 25.3013 23.9953 24.7641C23.4581 24.2268 23.1563 23.4982 23.1563 22.7385C23.1563 21.9788 23.4581 21.2501 23.9953 20.7129C24.5325 20.1757 25.2611 19.8739 26.0209 19.8739C26.7806 19.8739 27.5092 20.1757 28.0464 20.7129C28.5837 21.2501 28.8855 21.9788 28.8855 22.7385Z" fill="white"/>
<path fill-rule="evenodd" clip-rule="evenodd" d="M8.83337 0.967651C9.28921 0.967651 9.72638 1.14873 10.0487 1.47106C10.371 1.79339 10.5521 2.23056 10.5521 2.6864V4.40515H25.448V2.6864C25.448 2.23056 25.629 1.79339 25.9514 1.47106C26.2737 1.14873 26.7109 0.967651 27.1667 0.967651C27.6225 0.967651 28.0597 1.14873 28.382 1.47106C28.7044 1.79339 28.8855 2.23056 28.8855 2.6864V4.42348C29.2338 4.43265 29.5584 4.44946 29.8594 4.4739C30.7302 4.54265 31.5461 4.69848 32.3184 5.09265C33.5044 5.6969 34.4687 6.66117 35.073 7.84723C35.4671 8.61953 35.623 9.43536 35.6917 10.3062C35.7605 11.1427 35.7605 12.1624 35.7605 13.3885V30.9426C35.7605 32.1687 35.7605 33.1885 35.6917 34.0249C35.623 34.8958 35.4671 35.7116 35.073 36.4839C34.4693 37.6696 33.5059 38.6339 32.3207 39.2385C31.5461 39.6327 30.7302 39.7885 29.8594 39.8572C29.023 39.926 28.0032 39.926 26.7794 39.926H9.22296C7.99692 39.926 6.97712 39.926 6.14067 39.8572C5.26983 39.7885 4.454 39.6327 3.68171 39.2385C2.49634 38.6354 1.53215 37.6728 0.927124 36.4885C0.532958 35.7139 0.377124 34.8981 0.308375 34.0272C0.239625 33.1908 0.239624 32.171 0.239624 30.9472V13.3885C0.239624 12.1624 0.239625 11.1427 0.308375 10.3062C0.377124 9.43536 0.532958 8.61953 0.927124 7.84723C1.53137 6.66117 2.49565 5.6969 3.68171 5.09265C4.454 4.69848 5.26983 4.54265 6.14067 4.4739C6.44164 4.44946 6.76629 4.43265 7.11462 4.42348V2.6864C7.11462 2.46069 7.15908 2.23719 7.24546 2.02866C7.33183 1.82014 7.45843 1.63066 7.61803 1.47106C7.77763 1.31146 7.96711 1.18486 8.17564 1.09848C8.38416 1.01211 8.60766 0.967651 8.83337 0.967651ZM32.323 17.0093H3.67712V30.8739C3.67712 32.1847 3.67712 33.067 3.73442 33.7431C3.78712 34.4031 3.88337 34.717 3.98879 34.9233C4.26379 35.4641 4.7015 35.9018 5.24233 36.1768C5.44858 36.2822 5.76254 36.3785 6.42025 36.4312C7.09858 36.4862 7.97858 36.4885 9.29171 36.4885H26.7084C28.0192 36.4885 28.9015 36.4885 29.5775 36.4312C30.2375 36.3785 30.5515 36.2822 30.7577 36.1768C31.2976 35.902 31.7365 35.4632 32.0113 34.9233C32.1167 34.717 32.213 34.4031 32.2657 33.7431C32.3207 33.067 32.323 32.1847 32.323 30.8739V17.0093ZM14.5625 9.5614C14.1067 9.5614 13.6695 9.74248 13.3472 10.0648C13.0249 10.3871 12.8438 10.8243 12.8438 11.2802C12.8438 11.736 13.0249 12.1732 13.3472 12.4955C13.6695 12.8178 14.1067 12.9989 14.5625 12.9989H21.4375C21.8934 12.9989 22.3305 12.8178 22.6529 12.4955C22.9752 12.1732 23.1563 11.736 23.1563 11.2802C23.1563 10.8243 22.9752 10.3871 22.6529 10.0648C22.3305 9.74248 21.8934 9.5614 21.4375 9.5614H14.5625Z" fill="white"/>
</svg>
