<svg width="36" height="36" viewBox="0 0 36 36" fill="none" xmlns="http://www.w3.org/2000/svg">
<rect x="0.493774" y="0.519775" width="35.0124" height="35.0124" rx="17.5062" fill="white"/>
<path d="M18 3.4375C16.0842 3.4375 14.1872 3.81484 12.4172 4.54798C10.6473 5.28112 9.03904 6.3557 7.68437 7.71037C4.9485 10.4462 3.4115 14.1569 3.4115 18.026C3.4115 24.4741 7.5984 29.9448 13.39 31.8851C14.1195 32.0018 14.3529 31.5495 14.3529 31.1556V28.6902C10.3119 29.5655 9.45114 26.7353 9.45114 26.7353C8.78007 25.0431 7.83181 24.5908 7.83181 24.5908C6.50426 23.6863 7.93393 23.7155 7.93393 23.7155C9.39278 23.8176 10.166 25.2181 10.166 25.2181C11.4352 27.4356 13.5797 26.7791 14.4112 26.429C14.5425 25.4807 14.9218 24.8388 15.3303 24.4741C12.0917 24.1094 8.69253 22.8548 8.69253 17.2966C8.69253 15.6772 9.2469 14.3789 10.1951 13.3431C10.0493 12.9784 9.53867 11.4612 10.341 9.49173C10.341 9.49173 11.5665 9.09784 14.3529 10.9798C15.5054 10.6588 16.76 10.4983 18 10.4983C19.24 10.4983 20.4946 10.6588 21.6471 10.9798C24.4335 9.09784 25.659 9.49173 25.659 9.49173C26.4613 11.4612 25.9507 12.9784 25.8048 13.3431C26.7531 14.3789 27.3075 15.6772 27.3075 17.2966C27.3075 22.8694 23.8937 24.0948 20.6405 24.4595C21.1657 24.9118 21.6471 25.8017 21.6471 27.1584V31.1556C21.6471 31.5495 21.8805 32.0164 22.6245 31.8851C28.4162 29.9302 32.5885 24.4741 32.5885 18.026C32.5885 16.1102 32.2112 14.2132 31.478 12.4432C30.7449 10.6733 29.6703 9.06504 28.3156 7.71037C26.961 6.3557 25.3527 5.28112 23.5828 4.54798C21.8128 3.81484 19.9158 3.4375 18 3.4375Z" fill="black"/>
</svg>
