<svg width="42" height="42" viewBox="0 0 42 42" fill="none" xmlns="http://www.w3.org/2000/svg">
<path d="M15.8438 3.83228H26.1562C26.6121 3.83228 27.0493 4.01336 27.3716 4.33569C27.6939 4.65801 27.875 5.09518 27.875 5.55103V10.7073H14.125V5.55103C14.125 5.09518 14.3061 4.65801 14.6284 4.33569C14.9507 4.01336 15.3879 3.83228 15.8438 3.83228ZM10.6875 5.55103V10.7073H7.25C5.42664 10.7073 3.67795 11.4316 2.38864 12.7209C1.09933 14.0102 0.375 15.7589 0.375 17.5823V34.7698C0.375 36.5931 1.09933 38.3418 2.38864 39.6311C3.67795 40.9204 5.42664 41.6448 7.25 41.6448H34.75C36.5734 41.6448 38.322 40.9204 39.6114 39.6311C40.9007 38.3418 41.625 36.5931 41.625 34.7698V17.5823C41.625 15.7589 40.9007 14.0102 39.6114 12.7209C38.322 11.4316 36.5734 10.7073 34.75 10.7073H31.3125V5.55103C31.3125 4.1835 30.7693 2.87199 29.8023 1.90501C28.8353 0.938022 27.5238 0.394775 26.1562 0.394775H15.8438C14.4762 0.394775 13.1647 0.938022 12.1977 1.90501C11.2307 2.87199 10.6875 4.1835 10.6875 5.55103ZM22.7188 21.0198V24.4573H26.1562C26.6121 24.4573 27.0493 24.6384 27.3716 24.9607C27.6939 25.283 27.875 25.7202 27.875 26.176C27.875 26.6319 27.6939 27.069 27.3716 27.3914C27.0493 27.7137 26.6121 27.8948 26.1562 27.8948H22.7188V31.3323C22.7188 31.7881 22.5377 32.2253 22.2153 32.5476C21.893 32.8699 21.4558 33.051 21 33.051C20.5442 33.051 20.107 32.8699 19.7847 32.5476C19.4623 32.2253 19.2812 31.7881 19.2812 31.3323V27.8948H15.8438C15.3879 27.8948 14.9507 27.7137 14.6284 27.3914C14.3061 27.069 14.125 26.6319 14.125 26.176C14.125 25.7202 14.3061 25.283 14.6284 24.9607C14.9507 24.6384 15.3879 24.4573 15.8438 24.4573H19.2812V21.0198C19.2812 20.5639 19.4623 20.1268 19.7847 19.8044C20.107 19.4821 20.5442 19.301 21 19.301C21.4558 19.301 21.893 19.4821 22.2153 19.8044C22.5377 20.1268 22.7188 20.5639 22.7188 21.0198Z" fill="white"/>
</svg>
