<svg width="24" height="25" viewBox="0 0 24 25" fill="none" xmlns="http://www.w3.org/2000/svg">
<rect y="0.833344" width="24" height="23.3333" rx="11.6667" fill="url(#paint0_linear_84_136)"/>
<path d="M9.39062 16.9057L13.3879 7.56968C13.4551 7.41374 13.5793 7.28932 13.7351 7.22179C13.8909 7.15427 14.0666 7.14873 14.2263 7.20632C14.386 7.2639 14.5178 7.38026 14.5946 7.53165C14.6715 7.68305 14.6877 7.85807 14.6399 8.02101L14.6133 8.09434L10.6159 17.4303C10.5488 17.5863 10.4246 17.7107 10.2688 17.7782C10.113 17.8458 9.93734 17.8513 9.77761 17.7937C9.61788 17.7361 9.48614 17.6198 9.40926 17.4684C9.33239 17.317 9.31618 17.1419 9.36395 16.979L9.39062 16.9057ZM5.52861 12.027L8.19528 9.36034C8.31525 9.24078 8.47624 9.17136 8.64554 9.16619C8.81484 9.16102 8.97976 9.22049 9.1068 9.33251C9.23384 9.44453 9.31349 9.60071 9.32955 9.76933C9.34561 9.93794 9.29689 10.1063 9.19328 10.2403L9.13795 10.303L6.94261 12.4983L9.13795 14.6937C9.25878 14.8134 9.3293 14.9747 9.33507 15.1447C9.34084 15.3147 9.28142 15.4805 9.16897 15.6081C9.05653 15.7357 8.89956 15.8155 8.7302 15.8311C8.56084 15.8468 8.3919 15.7972 8.25795 15.6923L8.19528 15.6363L5.52861 12.9697C5.41383 12.8549 5.34488 12.7021 5.33469 12.5401C5.3245 12.3781 5.37378 12.2179 5.47328 12.0897L5.52861 12.027ZM14.8619 9.35968C14.9767 9.24489 15.1295 9.17594 15.2915 9.16575C15.4535 9.15556 15.6137 9.20484 15.7419 9.30434L15.8039 9.35968L18.4713 12.027C18.5861 12.1418 18.655 12.2945 18.6652 12.4566C18.6754 12.6186 18.6261 12.7787 18.5266 12.907L18.4713 12.9703L15.8039 15.6337C15.684 15.7532 15.523 15.8227 15.3537 15.8278C15.1844 15.833 15.0195 15.7735 14.8924 15.6615C14.7654 15.5495 14.6857 15.3933 14.6697 15.2247C14.6536 15.0561 14.7023 14.8877 14.8059 14.7537L14.8619 14.6903L17.0566 12.4983L14.8613 10.3023C14.7363 10.1773 14.6661 10.0078 14.6661 9.83101C14.6661 9.65423 14.737 9.4847 14.8619 9.35968Z" fill="white"/>
<defs>
<linearGradient id="paint0_linear_84_136" x1="12" y1="0.833344" x2="12" y2="24.1667" gradientUnits="userSpaceOnUse">
<stop stop-color="#3A96FF"/>
<stop offset="1" stop-color="#0E3868"/>
</linearGradient>
</defs>
</svg>
