<svg width="46" height="51" viewBox="0 0 46 51" fill="none" xmlns="http://www.w3.org/2000/svg">
<path d="M16.3703 8.00482C17.7407 3.9944 23.282 3.87294 24.9068 7.64044L25.0443 8.00711L26.8937 13.4154C27.3175 14.6558 28.0024 15.7908 28.9021 16.7439C29.8019 17.697 30.8956 18.4461 32.1095 18.9407L32.6068 19.1263L38.0151 20.9734C42.0255 22.3438 42.147 27.885 38.3818 29.5098L38.0151 29.6473L32.6068 31.4967C31.366 31.9202 30.2306 32.605 29.277 33.5048C28.3235 34.4046 27.574 35.4984 27.0793 36.7125L26.8937 37.2075L25.0466 42.6182C23.6762 46.6286 18.1349 46.75 16.5124 42.9848L16.3703 42.6182L14.5232 37.2098C14.0997 35.9691 13.4149 34.8336 12.5151 33.8801C11.6154 32.9265 10.5215 32.1771 9.30741 31.6823L8.81241 31.4967L3.40408 29.6496C-0.608633 28.2792 -0.730091 22.7379 3.03741 21.1154L3.40408 20.9734L8.81241 19.1263C10.0527 18.7024 11.1877 18.0176 12.1409 17.1178C13.094 16.218 13.8431 15.1243 14.3376 13.9104L14.5232 13.4154L16.3703 8.00482ZM20.7085 9.48523L18.8614 14.8936C18.216 16.7849 17.1661 18.5128 15.7849 19.957C14.4036 21.4012 12.7242 22.5269 10.8635 23.2559L10.2905 23.4644L4.8822 25.3115L10.2905 27.1586C12.1819 27.8039 13.9098 28.8538 15.354 30.235C16.7982 31.6163 17.9239 33.2958 18.6528 35.1565L18.8614 35.7294L20.7085 41.1377L22.5555 35.7294C23.2009 33.8381 24.2508 32.1102 25.632 30.666C27.0133 29.2218 28.6927 28.096 30.5534 27.3671L31.1264 27.1609L36.5347 25.3115L31.1264 23.4644C29.235 22.819 27.5071 21.7692 26.0629 20.3879C24.6187 19.0067 23.493 17.3272 22.7641 15.4665L22.5578 14.8936L20.7085 9.48523ZM39.0418 0.10315C39.4705 0.103149 39.8906 0.223412 40.2544 0.450272C40.6182 0.677131 40.9111 1.00149 41.0997 1.38648L41.2097 1.65461L42.0118 4.00586L44.3653 4.80794C44.795 4.95391 45.1716 5.22414 45.4475 5.58439C45.7234 5.94464 45.8862 6.37869 45.9151 6.83153C45.9441 7.28437 45.838 7.73562 45.6102 8.12808C45.3824 8.52054 45.0433 8.83655 44.6357 9.03607L44.3653 9.14607L42.0141 9.94815L41.212 12.3017C41.0658 12.7312 40.7953 13.1077 40.4349 13.3833C40.0746 13.659 39.6404 13.8215 39.1876 13.8502C38.7348 13.8789 38.2836 13.7726 37.8913 13.5446C37.499 13.3167 37.1832 12.9774 36.9839 12.5698L36.8739 12.3017L36.0718 9.95044L33.7182 9.14836C33.2886 9.00239 32.912 8.73216 32.6361 8.37191C32.3601 8.01166 32.1974 7.57761 32.1684 7.12477C32.1395 6.67193 32.2456 6.22068 32.4734 5.82822C32.7011 5.43576 33.0403 5.11975 33.4478 4.92023L33.7182 4.81023L36.0695 4.00815L36.8716 1.65461C37.0261 1.20183 37.3185 0.808773 37.7077 0.530543C38.0968 0.252312 38.5634 0.102862 39.0418 0.10315Z" fill="white"/>
</svg>
